<?xml version="1.0" encoding="UTF-8" standalone="no"?>
<!DOCTYPE svg PUBLIC "-//W3C//DTD SVG 1.1//EN" "http://www.w3.org/Graphics/SVG/1.1/DTD/svg11.dtd">
<svg xmlns="http://www.w3.org/2000/svg" version="1.1" viewBox="0.00 0.00 1260.00 1212.00">
<path fill="#e2decb" d="
  M 567.17 423.34
  Q 567.08 424.16 567.34 424.67
  Q 570.42 430.79 576.03 441.71
  Q 580.47 450.36 582.53 453.26
  Q 582.89 453.76 582.98 454.56
  A 0.55 0.55 0.0 0 0 583.34 455.03
  Q 584.08 455.31 584.11 456.17
  A 1.13 1.12 28.8 0 0 584.27 456.71
  Q 590.72 467.76 598.65 479.61
  Q 608.07 493.69 619.07 509.19
  Q 623.70 515.71 629.34 522.91
  Q 644.25 541.96 649.81 548.85
  A 1.34 1.34 0.0 0 1 650.04 549.25
  C 650.83 551.19 653.35 552.25 653.79 554.09
  A 2.27 2.24 -75.8 0 0 654.49 555.28
  Q 656.79 557.34 657.88 559.38
  C 658.82 561.12 661.18 562.53 661.66 564.40
  A 1.40 1.33 -82.3 0 0 662.24 565.20
  Q 663.15 565.78 664.22 567.27
  C 668.29 573.00 671.99 577.14 676.20 582.77
  Q 678.83 586.29 681.30 589.11
  A 2.84 2.65 -79.8 0 1 681.70 589.73
  Q 682.46 591.36 684.50 593.25
  A 2.97 2.82 10.6 0 1 685.13 594.12
  Q 685.94 595.88 687.80 597.56
  A 2.18 2.11 -78.8 0 1 688.42 598.52
  C 688.93 600.17 690.89 601.40 691.66 602.81
  Q 692.06 603.53 704.71 620.49
  Q 712.37 630.76 717.84 638.40
  Q 724.58 647.78 728.97 653.25
  Q 734.66 660.34 740.12 668.06
  Q 743.74 673.17 768.28 707.82
  C 785.27 731.79 798.43 752.35 818.18 782.21
  C 839.45 814.39 861.35 845.03 884.95 877.05
  Q 894.05 889.40 902.07 898.91
  Q 902.94 899.95 903.56 900.81
  Q 904.31 901.86 905.12 902.60
  Q 908.65 905.83 910.46 908.77
  A 6.28 6.27 -84.4 0 0 911.51 910.05
  Q 914.22 912.57 916.49 915.59
  C 919.29 919.33 922.42 922.12 925.87 925.58
  C 929.53 929.26 933.59 934.52 937.71 938.62
  C 946.49 947.36 952.28 953.59 960.12 960.46
  Q 964.20 964.03 968.88 968.34
  Q 977.33 976.15 993.26 987.25
  Q 994.30 987.97 1003.93 993.44
  A 1.83 1.77 -26.3 0 0 1004.62 993.66
  Q 1004.94 993.70 1005.21 993.75
  Q 1005.50 993.81 1005.60 994.04
  Q 1006.02 995.02 1007.04 994.74
  A 0.66 0.65 -20.0 0 1 1007.81 995.09
  Q 1008.27 996.10 1009.47 995.88
  A 0.65 0.64 -13.8 0 1 1010.20 996.32
  Q 1010.46 997.15 1011.67 997.05
  A 0.90 0.88 70.9 0 1 1012.48 997.45
  C 1013.27 998.65 1014.62 997.78 1015.32 998.76
  Q 1015.75 999.36 1016.60 999.29
  Q 1017.49 999.23 1017.93 999.87
  Q 1018.37 1000.53 1018.93 1000.41
  Q 1019.59 1000.28 1020.00 1000.66
  Q 1020.41 1001.05 1023.40 1002.46
  Q 1023.79 1002.65 1024.59 1002.67
  Q 1025.38 1002.69 1025.67 1003.35
  A 0.71 0.69 -11.3 0 0 1026.32 1003.77
  L 1027.50 1003.77
  A 0.62 0.61 79.8 0 1 1028.08 1004.18
  Q 1028.38 1005.01 1029.64 1004.87
  A 0.88 0.88 0.0 0 1 1030.47 1005.25
  Q 1031.08 1006.13 1032.45 1006.05
  A 1.27 1.25 -18.7 0 1 1033.56 1006.59
  Q 1033.58 1006.62 1033.63 1006.70
  A 0.98 0.98 0.0 0 0 1034.70 1007.15
  Q 1035.56 1006.93 1036.04 1007.77
  A 0.99 0.98 75.2 0 0 1036.87 1008.26
  Q 1037.26 1008.27 1037.29 1008.26
  Q 1037.35 1008.23 1037.71 1008.39
  Q 1042.94 1010.64 1051.90 1014.80
  Q 1052.33 1015.00 1053.13 1015.11
  Q 1053.58 1015.17 1053.94 1015.69
  Q 1054.28 1016.18 1054.77 1016.12
  Q 1055.55 1016.03 1056.14 1016.58
  Q 1056.58 1017.00 1057.43 1017.36
  Q 1074.97 1024.83 1099.40 1034.50
  C 1127.48 1045.61 1145.28 1052.74 1167.82 1059.17
  C 1179.04 1062.38 1194.64 1065.25 1205.44 1067.82
  Q 1218.69 1070.98 1231.86 1076.45
  Q 1233.73 1077.23 1235.81 1078.45
  Q 1243.41 1082.92 1248.01 1090.75
  Q 1250.95 1095.74 1252.00 1099.05
  Q 1253.38 1103.41 1253.62 1108.04
  Q 1254.66 1128.41 1242.77 1145.02
  Q 1239.51 1149.58 1234.81 1154.05
  Q 1231.93 1156.81 1216.93 1167.41
  A 1.04 0.01 -23.4 0 1 1216.01 1167.82
  Q 1215.23 1168.15 1214.74 1168.47
  Q 1212.90 1169.67 1205.11 1174.42
  C 1195.54 1180.26 1183.48 1183.97 1172.73 1185.42
  Q 1162.68 1186.77 1150.12 1186.17
  Q 1143.96 1185.87 1139.51 1185.87
  C 1131.77 1185.88 1128.48 1186.26 1123.18 1185.20
  Q 1122.94 1185.15 1117.49 1184.52
  C 1111.87 1183.87 1105.41 1182.39 1099.32 1180.80
  Q 1085.17 1177.09 1068.77 1174.21
  Q 1054.60 1171.72 1042.51 1171.32
  Q 1023.91 1170.72 1005.89 1175.19
  Q 983.96 1180.63 966.06 1187.09
  Q 946.80 1194.04 931.89 1197.87
  Q 913.25 1202.67 883.55 1206.96
  Q 876.18 1208.02 868.93 1208.20
  Q 856.03 1208.51 854.25 1208.34
  Q 843.58 1207.30 837.25 1207.07
  Q 834.11 1206.95 820.80 1204.38
  C 796.01 1199.59 770.20 1192.11 748.98 1177.96
  C 743.71 1174.43 735.52 1169.90 729.24 1164.73
  C 722.57 1159.26 718.56 1156.34 712.84 1151.48
  Q 709.81 1148.91 702.05 1142.82
  Q 698.91 1140.35 698.45 1139.94
  Q 696.07 1137.80 694.05 1136.27
  Q 690.02 1133.22 680.44 1125.00
  Q 678.41 1123.25 675.71 1121.51
  C 673.60 1120.14 672.15 1117.97 669.81 1116.46
  Q 667.55 1115.01 664.66 1111.91
  A 6.30 6.15 83.5 0 0 663.36 1110.85
  Q 660.43 1109.06 657.10 1105.54
  A 4.60 4.15 -2.9 0 0 656.24 1104.84
  Q 653.48 1103.09 650.39 1099.85
  A 2.58 1.93 3.1 0 0 650.08 1099.59
  L 647.47 1097.85
  A 4.93 4.74 83.0 0 1 646.71 1097.23
  C 644.20 1094.67 641.20 1092.63 639.30 1090.88
  Q 634.64 1086.60 626.41 1080.01
  C 623.92 1078.02 622.01 1075.75 619.77 1074.29
  C 617.87 1073.06 616.75 1071.73 614.94 1070.09
  C 613.06 1068.40 611.13 1067.54 609.41 1065.60
  Q 608.12 1064.15 605.84 1062.76
  Q 604.11 1061.71 602.12 1059.47
  A 4.99 4.93 -5.8 0 0 600.79 1058.40
  Q 598.69 1057.24 596.40 1054.85
  A 3.93 3.89 -6.7 0 0 595.44 1054.10
  Q 592.90 1052.67 590.89 1050.51
  A 6.40 6.06 85.2 0 0 589.95 1049.67
  Q 585.14 1046.17 580.75 1042.78
  Q 547.65 1017.15 506.50 993.02
  Q 498.34 988.24 494.53 985.95
  Q 494.09 985.69 493.87 985.75
  Q 493.59 985.82 493.41 985.69
  Q 493.13 985.50 493.06 985.34
  Q 492.73 984.53 491.88 984.58
  A 1.08 1.08 0.0 0 1 491.22 984.40
  Q 488.20 982.38 486.68 981.98
  Q 485.43 981.65 484.80 981.12
  Q 483.84 980.29 482.14 979.37
  Q 478.12 977.19 471.21 973.57
  Q 470.79 973.35 470.51 973.36
  C 470.14 973.37 469.82 973.34 469.64 972.97
  Q 469.24 972.11 468.18 972.34
  A 0.74 0.72 -20.7 0 1 467.41 972.00
  Q 466.83 970.98 465.88 971.18
  A 0.70 0.70 0.0 0 1 465.13 970.86
  Q 464.59 969.96 463.57 969.96
  A 0.88 0.86 -15.0 0 1 462.82 969.54
  Q 462.64 969.25 461.99 968.93
  Q 450.02 963.12 434.12 955.81
  C 433.30 955.43 431.59 955.34 431.48 954.91
  A 0.77 0.76 -6.4 0 0 430.75 954.33
  L 429.89 954.33
  A 0.83 0.82 76.3 0 1 429.18 953.89
  Q 428.75 953.04 427.49 953.16
  A 0.70 0.70 0.0 0 1 426.80 952.79
  Q 426.41 952.07 425.55 952.10
  A 1.39 1.39 0.0 0 1 424.40 951.57
  Q 424.37 951.54 424.31 951.46
  A 1.62 1.61 -18.0 0 0 423.11 950.85
  Q 422.14 950.82 421.67 950.16
  A 0.86 0.85 69.1 0 0 420.89 949.81
  Q 419.63 949.92 419.03 949.07
  A 0.88 0.88 0.0 0 0 418.20 948.69
  Q 417.29 948.79 416.73 948.20
  A 1.00 0.96 78.2 0 0 416.38 947.96
  L 408.65 944.87
  A 0.03 0.01 22.5 0 1 408.63 944.85
  Q 408.37 944.20 406.68 944.15
  A 1.21 1.19 -18.4 0 1 405.80 943.72
  Q 405.11 942.90 403.98 943.11
  A 0.65 0.64 -13.8 0 1 403.25 942.67
  Q 402.97 941.73 401.80 941.90
  A 1.03 1.02 -26.8 0 1 400.94 941.62
  Q 400.36 941.07 400.14 940.83
  Q 399.67 940.30 397.26 939.81
  Q 396.55 939.66 396.22 939.66
  Q 395.65 939.66 395.32 939.26
  Q 394.71 938.54 393.36 938.50
  A 0.83 0.81 -20.4 0 1 392.79 938.25
  L 392.39 937.85
  A 0.94 0.49 62.5 0 0 392.29 937.78
  Q 383.27 934.01 381.27 933.07
  Q 377.74 931.42 373.37 930.02
  C 360.17 925.79 348.01 922.31 335.01 920.65
  Q 315.32 918.14 293.69 920.18
  C 288.55 920.67 284.09 920.22 279.90 920.98
  C 274.03 922.04 268.89 921.66 262.58 921.69
  A 7.69 7.24 -49.8 0 0 260.91 921.88
  Q 257.07 922.73 254.98 922.75
  Q 234.22 922.92 219.26 922.76
  Q 217.25 922.74 215.46 921.96
  A 2.79 2.69 -32.0 0 0 214.43 921.74
  C 210.67 921.70 207.22 922.05 204.08 920.90
  C 202.85 920.45 201.21 920.72 199.30 920.57
  Q 162.96 917.71 126.81 905.84
  Q 119.83 903.55 108.98 899.31
  Q 108.53 899.13 108.35 899.17
  A 0.66 0.65 -19.9 0 1 107.64 898.84
  Q 107.15 897.93 105.94 898.12
  A 0.64 0.64 0.0 0 1 105.23 897.70
  Q 104.89 896.70 103.82 896.93
  A 0.73 0.72 68.4 0 1 103.03 896.58
  Q 102.87 896.32 102.25 895.84
  Q 100.78 894.72 100.02 894.77
  Q 98.88 894.85 98.31 894.20
  Q 97.56 893.35 97.05 893.47
  Q 96.39 893.63 95.90 893.00
  A 0.54 0.51 -1.7 0 0 95.72 892.84
  L 85.31 887.05
  A 2.29 2.06 64.0 0 0 84.79 886.84
  Q 84.74 886.82 84.60 886.83
  A 0.23 0.16 -18.0 0 1 84.47 886.79
  Q 80.53 884.13 77.55 882.38
  Q 75.47 881.16 73.69 879.68
  Q 71.82 878.12 69.92 876.82
  Q 68.14 875.59 61.69 870.27
  C 55.52 865.19 48.90 858.09 45.22 854.46
  C 43.83 853.09 43.04 851.60 41.86 850.27
  Q 32.03 839.22 24.43 825.57
  A 2.16 2.09 -66.6 0 1 24.17 824.88
  Q 24.12 824.60 24.08 824.38
  Q 24.03 824.14 23.85 824.05
  Q 23.03 823.63 22.96 822.87
  A 1.50 1.48 26.3 0 0 22.72 822.17
  Q 20.77 819.06 19.85 817.12
  Q 6.92 789.97 3.08 758.99
  C 2.65 755.56 3.03 752.66 2.01 749.84
  A 5.82 5.64 -55.8 0 1 1.67 747.89
  L 1.67 718.87
  A 2.80 2.75 55.2 0 1 1.83 717.94
  L 2.58 715.77
  A 2.21 2.04 56.8 0 0 2.70 715.06
  L 2.78 707.31
  A 2.49 2.40 60.5 0 1 3.07 706.19
  C 4.38 703.68 3.53 701.45 4.11 699.30
  Q 4.70 697.11 4.85 696.22
  Q 7.95 677.32 14.40 658.70
  A 0.59 0.58 84.4 0 1 14.66 658.38
  Q 15.17 658.09 15.10 657.41
  Q 15.06 657.08 15.27 656.47
  C 17.09 651.14 18.72 645.89 20.92 641.26
  Q 22.09 638.81 22.05 638.09
  A 0.54 0.52 -13.8 0 1 22.37 637.58
  Q 23.16 637.23 23.03 636.16
  A 1.09 1.09 0.0 0 1 23.56 635.07
  Q 23.61 635.04 23.63 635.02
  A 1.13 1.10 71.4 0 0 24.10 634.05
  Q 24.07 633.51 24.38 633.09
  Q 24.83 632.47 24.91 632.22
  Q 26.13 628.42 37.49 604.99
  Q 37.78 604.39 37.75 604.09
  A 0.58 0.57 74.7 0 1 38.08 603.50
  Q 39.06 603.07 38.71 602.00
  A 0.48 0.47 -16.5 0 1 39.05 601.39
  Q 40.18 601.11 39.87 599.91
  A 0.65 0.65 0.0 0 1 40.25 599.15
  Q 40.74 598.96 41.26 597.39
  A 0.05 0.03 76.7 0 0 41.27 597.36
  L 56.94 566.68
  A 0.71 0.69 0.9 0 1 57.27 566.37
  Q 58.02 566.05 57.83 565.00
  A 0.63 0.63 0.0 0 1 58.24 564.29
  Q 59.28 563.92 58.94 562.72
  A 0.59 0.58 -15.3 0 1 59.36 561.99
  Q 60.14 561.80 60.11 560.95
  A 0.91 0.90 -31.9 0 1 60.22 560.48
  Q 63.45 554.70 64.58 551.57
  Q 64.94 550.56 65.30 550.40
  A 0.70 0.69 -19.0 0 0 65.69 549.62
  Q 65.49 548.72 66.25 548.42
  Q 66.99 548.11 66.86 547.36
  Q 66.70 546.40 67.52 546.13
  A 0.74 0.72 74.0 0 0 67.99 545.26
  Q 67.70 544.08 68.69 543.82
  A 0.57 0.56 75.8 0 0 69.09 543.14
  Q 68.94 542.57 69.36 542.02
  Q 69.80 541.45 69.90 541.24
  Q 72.40 536.06 73.94 532.09
  A 1.17 1.11 81.7 0 1 74.30 531.58
  Q 75.00 530.98 74.75 530.16
  A 0.56 0.55 -17.6 0 1 75.11 529.47
  Q 76.08 529.15 75.86 527.92
  A 0.66 0.66 0.0 0 1 76.25 527.19
  Q 77.14 526.80 76.95 525.61
  A 0.65 0.65 0.0 0 1 77.33 524.91
  L 77.58 524.81
  A 0.56 0.51 -87.4 0 0 77.86 524.53
  Q 83.00 512.63 87.06 503.92
  Q 88.96 499.86 90.42 496.16
  Q 92.21 491.60 93.72 488.39
  Q 93.94 487.91 93.88 487.61
  Q 93.84 487.43 93.86 487.23
  A 0.67 0.66 -8.2 0 1 94.28 486.68
  Q 95.19 486.31 94.96 485.15
  A 0.69 0.68 -11.1 0 1 95.51 484.34
  Q 96.22 484.21 96.08 483.33
  Q 95.95 482.46 96.68 481.87
  C 97.41 481.28 97.08 480.53 97.44 479.72
  Q 99.71 474.58 102.11 467.89
  A 0.82 0.78 82.2 0 1 102.37 467.53
  Q 103.07 466.99 102.83 466.04
  A 0.63 0.62 78.2 0 1 103.33 465.26
  Q 103.64 465.21 103.86 464.89
  Q 104.06 464.59 103.97 464.11
  Q 103.74 462.85 104.52 462.66
  A 0.23 0.21 2.0 0 0 104.67 462.53
  L 120.38 421.63
  A 0.63 0.29 -83.7 0 1 120.47 421.48
  Q 120.93 420.96 120.83 420.20
  A 1.04 1.02 64.4 0 1 121.13 419.32
  L 121.62 418.83
  A 1.06 1.06 0.0 0 0 121.92 417.94
  Q 121.73 416.39 122.66 415.93
  A 0.75 0.73 73.6 0 0 123.06 415.18
  Q 122.90 413.93 123.76 413.27
  A 1.04 1.03 70.8 0 0 124.15 412.46
  Q 124.15 411.30 124.60 410.59
  A 2.62 0.62 -50.9 0 0 125.04 409.68
  Q 125.76 407.28 130.70 393.37
  Q 130.90 392.82 130.95 392.00
  Q 131.00 391.21 131.65 390.81
  A 0.84 0.82 72.8 0 0 132.05 390.03
  Q 132.01 389.52 132.21 388.91
  Q 149.47 335.75 156.67 283.48
  Q 156.89 281.90 156.82 281.04
  C 156.68 279.37 157.90 278.44 157.89 276.91
  Q 157.88 276.32 157.91 273.02
  A 4.78 4.72 -33.1 0 1 158.32 271.14
  Q 159.53 268.39 159.01 264.76
  Q 158.85 263.69 159.94 260.63
  A 5.02 5.00 53.0 0 0 160.22 258.61
  Q 159.91 254.11 160.59 251.64
  Q 161.45 248.52 161.34 246.38
  C 161.07 241.18 162.31 237.13 162.38 231.42
  Q 162.44 225.94 162.64 224.57
  Q 163.33 219.99 163.55 200.25
  Q 163.91 167.30 163.06 153.26
  Q 162.29 140.44 162.33 139.72
  Q 162.54 135.98 161.68 130.81
  Q 161.19 127.84 161.16 121.54
  A 2.31 1.52 51.8 0 0 161.13 121.19
  L 160.24 116.39
  A 3.39 3.23 -50.0 0 1 160.19 115.62
  Q 160.33 111.20 159.56 107.94
  C 158.82 104.79 159.40 102.19 158.58 99.37
  Q 157.74 96.51 157.86 94.55
  C 158.00 92.30 157.14 90.06 156.93 87.99
  Q 156.33 81.86 154.59 71.09
  Q 151.49 51.84 150.41 42.45
  Q 149.75 36.74 150.16 26.54
  A 1.23 1.23 0.0 0 1 150.52 25.72
  L 150.84 25.40
  A 1.31 1.28 62.5 0 0 151.19 24.24
  Q 150.92 22.87 151.61 22.13
  A 2.87 2.79 76.0 0 0 152.20 21.12
  Q 153.38 17.57 154.47 16.20
  Q 155.77 14.55 155.56 14.01
  A 0.17 0.15 -37.4 0 1 155.59 13.84
  L 157.33 12.11
  A 2.46 2.15 -12.1 0 0 157.74 11.56
  Q 159.80 7.74 164.47 5.40
  Q 167.11 4.07 169.03 4.14
  Q 171.69 4.24 172.30 4.29
  A 2.38 2.34 67.3 0 1 173.66 4.86
  Q 174.22 5.34 175.41 5.29
  A 3.24 3.12 -34.8 0 1 176.77 5.51
  Q 184.42 8.49 187.27 16.24
  Q 191.30 27.24 193.95 38.77
  Q 198.20 57.28 200.89 70.12
  Q 203.01 80.29 205.42 100.48
  Q 205.64 102.38 206.05 103.86
  C 206.44 105.26 206.19 106.97 206.45 108.39
  Q 207.30 113.20 209.48 133.05
  C 209.81 136.02 209.44 139.49 210.56 142.48
  A 3.49 3.49 0.0 0 1 210.78 143.70
  L 210.78 152.56
  A 5.31 4.99 39.6 0 0 210.94 153.83
  C 211.41 155.60 211.79 156.82 211.79 158.38
  C 211.80 165.84 211.64 170.93 212.35 175.74
  Q 212.63 177.63 212.65 179.23
  Q 212.98 203.12 212.65 226.07
  C 212.62 227.96 212.34 229.01 212.03 230.67
  A 7.38 7.38 0.0 0 0 211.91 231.88
  Q 211.81 237.63 211.76 246.73
  Q 211.75 247.63 211.03 249.62
  A 3.55 3.44 -35.9 0 0 210.82 250.81
  Q 210.79 254.73 210.72 260.23
  Q 210.72 260.72 210.18 262.05
  A 3.46 3.28 59.4 0 0 209.96 263.01
  Q 208.68 279.05 205.81 296.82
  Q 205.47 298.96 203.51 312.86
  A 2.00 1.94 64.1 0 1 203.30 313.50
  C 202.62 314.73 202.94 316.18 202.63 317.78
  Q 195.97 352.52 185.84 385.50
  Q 183.08 394.47 181.09 400.06
  Q 176.97 411.64 175.39 416.67
  Q 175.39 416.68 175.39 416.69
  Q 166.55 441.16 159.02 459.92
  Q 158.91 460.21 158.87 460.87
  Q 158.84 461.38 158.42 461.48
  A 0.62 0.61 -7.7 0 0 157.95 462.09
  Q 157.99 463.30 157.56 464.31
  Q 152.77 475.46 148.57 486.39
  Q 147.00 490.47 144.56 495.92
  Q 142.11 501.39 140.60 505.47
  Q 138.96 509.90 137.89 512.18
  Q 135.77 516.68 135.14 518.87
  A 0.85 0.04 -47.7 0 1 134.67 519.44
  Q 134.52 519.61 134.46 519.75
  Q 129.16 533.08 124.16 545.07
  Q 121.05 552.52 118.51 557.23
  Q 116.14 561.63 112.46 569.22
  Q 111.85 570.48 111.70 571.19
  A 1.65 1.63 76.2 0 1 111.20 572.03
  Q 111.13 572.09 111.08 572.13
  A 0.95 0.93 69.8 0 0 110.72 572.93
  C 110.76 573.90 110.09 574.29 109.74 574.98
  Q 105.31 583.58 102.25 591.91
  A 7.06 6.63 72.3 0 1 101.74 592.98
  Q 99.98 595.92 98.94 598.45
  Q 97.26 602.55 96.45 604.01
  Q 95.37 605.95 94.76 608.19
  Q 94.15 610.40 93.24 612.41
  Q 89.76 620.14 83.81 638.61
  Q 75.22 665.28 70.35 688.04
  Q 69.25 693.18 69.05 696.01
  C 68.79 699.81 67.94 702.58 67.78 706.69
  Q 66.93 728.19 68.26 740.50
  Q 70.31 759.51 79.02 783.23
  C 80.71 787.84 83.20 792.03 85.14 796.51
  Q 86.74 800.19 87.71 801.75
  Q 87.91 802.07 93.85 811.97
  Q 97.38 817.84 100.47 821.88
  Q 112.72 837.84 128.83 849.67
  Q 136.46 855.28 150.48 863.26
  C 170.87 874.87 192.92 883.21 216.25 885.74
  Q 219.44 886.09 220.69 886.33
  A 2.34 0.11 11.9 0 0 222.35 886.60
  Q 236.05 886.98 252.41 886.69
  Q 256.82 886.62 260.18 886.02
  C 263.44 885.44 267.11 885.89 270.56 885.41
  C 275.90 884.67 279.16 884.79 283.81 883.91
  Q 287.32 883.24 293.86 883.43
  C 296.17 883.50 297.08 883.08 298.84 882.69
  A 13.78 13.40 37.7 0 1 301.91 882.34
  L 334.78 882.33
  A 7.80 7.18 -36.7 0 1 336.33 882.49
  C 341.33 883.53 344.03 883.33 349.82 884.08
  Q 360.59 885.46 372.16 887.39
  C 387.30 889.92 401.66 894.14 416.16 898.61
  Q 424.33 901.12 437.21 906.56
  Q 451.93 912.78 458.27 915.29
  Q 465.60 918.19 470.21 920.36
  Q 476.61 923.37 482.19 925.39
  A 2.00 0.52 48.9 0 1 483.01 925.95
  Q 483.39 926.29 484.01 926.19
  Q 484.53 926.10 484.87 926.62
  Q 485.25 927.21 485.89 927.25
  Q 486.41 927.28 487.04 927.63
  Q 489.42 928.94 490.51 929.42
  Q 502.01 934.47 514.50 940.74
  Q 515.40 941.19 516.65 941.68
  Q 517.17 941.88 518.78 942.62
  Q 523.47 944.79 541.41 954.36
  Q 601.86 986.61 654.51 1029.26
  Q 654.55 1029.29 661.45 1034.76
  Q 667.90 1039.87 670.58 1042.42
  Q 671.56 1043.36 673.34 1044.46
  A 6.12 5.88 82.2 0 1 674.34 1045.25
  C 678.02 1048.87 681.02 1050.86 684.47 1054.18
  Q 688.32 1057.89 693.23 1061.36
  Q 696.40 1063.59 702.09 1068.53
  Q 705.08 1071.12 707.38 1072.89
  C 709.81 1074.75 711.31 1076.54 714.10 1078.89
  Q 730.18 1092.42 743.67 1103.35
  C 745.00 1104.42 746.29 1105.80 747.95 1107.12
  Q 759.56 1116.30 770.86 1123.79
  Q 775.26 1126.71 778.11 1128.22
  C 782.16 1130.37 784.69 1132.26 787.99 1133.85
  Q 795.30 1137.37 803.62 1141.16
  Q 825.23 1151.00 849.08 1156.60
  Q 855.16 1158.02 859.99 1158.58
  C 865.21 1159.18 869.88 1160.15 874.70 1160.14
  Q 882.19 1160.11 899.59 1160.12
  A 4.78 4.61 37.3 0 0 900.69 1159.99
  Q 907.36 1158.43 914.00 1159.03
  Q 914.55 1159.08 918.29 1158.05
  A 5.64 5.50 -51.8 0 1 919.73 1157.86
  Q 927.36 1157.80 928.30 1157.67
  Q 975.09 1151.64 985.30 1150.10
  C 990.55 1149.30 997.46 1147.86 1002.90 1146.55
  C 1024.25 1141.44 1039.32 1137.64 1056.29 1136.13
  Q 1063.35 1135.50 1071.21 1136.18
  Q 1088.97 1137.71 1105.93 1142.11
  C 1117.71 1145.16 1131.56 1149.80 1144.75 1151.01
  C 1149.95 1151.49 1153.40 1152.18 1157.80 1152.23
  C 1169.39 1152.36 1178.21 1152.61 1188.46 1150.94
  Q 1204.20 1148.37 1217.06 1140.67
  C 1219.44 1139.25 1221.42 1137.38 1223.67 1135.99
  A 2.06 1.92 -80.6 0 0 1223.97 1135.76
  L 1228.03 1131.70
  A 1.55 1.51 -18.5 0 0 1228.46 1130.87
  C 1228.78 1129.06 1230.61 1128.81 1230.83 1126.85
  Q 1230.85 1126.69 1232.02 1124.91
  Q 1232.88 1123.60 1233.58 1122.11
  C 1236.57 1115.79 1239.11 1106.26 1235.49 1099.96
  Q 1231.77 1093.47 1227.08 1088.99
  C 1225.80 1087.76 1224.36 1087.24 1222.49 1087.14
  Q 1212.04 1086.56 1205.46 1085.02
  Q 1189.41 1081.28 1181.95 1078.75
  Q 1176.64 1076.95 1161.63 1071.86
  Q 1157.74 1070.54 1137.97 1067.08
  C 1132.44 1066.11 1125.19 1063.93 1118.65 1061.36
  Q 1106.05 1056.41 1083.53 1048.25
  Q 1079.57 1046.82 1067.61 1041.39
  Q 1050.54 1033.65 1031.37 1026.21
  Q 1030.69 1025.95 1030.02 1025.36
  Q 1029.57 1024.97 1028.86 1025.11
  A 0.75 0.75 0.0 0 1 1028.04 1024.69
  Q 1027.66 1023.90 1026.18 1023.99
  Q 1025.30 1024.05 1025.02 1023.49
  Q 1024.76 1022.96 1023.83 1022.87
  Q 1023.27 1022.82 1019.75 1020.76
  A 0.96 0.96 0.0 0 0 1019.25 1020.62
  Q 1019.00 1020.62 1018.63 1020.54
  Q 1018.43 1020.50 1018.33 1020.27
  Q 1017.91 1019.30 1016.56 1019.47
  A 0.71 0.71 0.0 0 1 1015.81 1019.04
  Q 1015.50 1018.31 1014.60 1018.38
  Q 1013.86 1018.43 1013.59 1017.76
  Q 1013.29 1017.01 1012.23 1017.30
  A 0.68 0.67 70.0 0 1 1011.44 1016.93
  Q 1010.97 1015.92 1009.71 1016.15
  A 0.73 0.72 -16.9 0 1 1008.93 1015.74
  Q 1008.66 1015.15 1007.77 1015.05
  Q 1006.81 1014.94 1006.63 1014.46
  Q 1006.47 1014.03 1005.87 1013.95
  Q 1005.43 1013.90 1005.00 1013.68
  Q 1000.77 1011.50 998.01 1009.62
  A 1.19 1.16 -28.1 0 0 997.32 1009.42
  Q 996.63 1009.44 996.35 1008.90
  Q 996.05 1008.35 995.45 1008.38
  Q 994.71 1008.42 994.32 1007.60
  A 0.66 0.66 0.0 0 0 993.63 1007.23
  Q 993.24 1007.28 992.32 1006.69
  Q 973.43 994.59 958.87 982.86
  Q 948.76 974.71 939.18 964.79
  Q 938.28 963.87 920.18 945.82
  Q 913.00 938.66 909.99 934.97
  C 905.92 930.01 902.70 927.52 898.68 922.56
  Q 895.04 918.07 894.14 917.12
  Q 893.87 916.83 892.64 915.34
  Q 883.77 904.56 877.57 896.43
  Q 865.98 881.25 849.87 856.63
  Q 835.72 835.01 818.24 807.42
  Q 808.91 792.69 802.79 783.48
  C 795.48 772.48 789.47 761.82 782.31 751.52
  C 772.84 737.89 755.02 711.78 741.22 693.22
  Q 709.29 650.30 695.88 632.77
  Q 677.23 608.41 668.29 597.47
  Q 667.72 596.77 667.02 595.80
  Q 665.26 593.34 659.60 586.43
  C 655.29 581.17 651.60 576.08 647.68 571.88
  A 4.28 4.15 10.5 0 1 646.97 570.88
  C 645.69 568.41 643.40 566.82 642.04 564.50
  A 6.29 5.94 -85.0 0 0 640.98 563.16
  Q 638.77 561.03 638.31 560.31
  Q 635.76 556.35 634.22 555.20
  A 2.26 2.23 -84.1 0 1 633.51 554.31
  C 632.35 551.75 629.67 550.19 628.44 547.98
  Q 628.13 547.43 624.07 542.45
  Q 600.72 513.79 584.68 489.85
  Q 570.06 468.02 559.51 447.22
  Q 559.42 447.04 559.33 446.72
  Q 559.24 446.40 559.04 446.30
  Q 558.05 445.77 558.22 444.70
  A 0.74 0.74 0.0 0 0 557.71 443.88
  Q 557.55 443.83 557.29 443.56
  Q 557.10 443.36 557.11 442.95
  Q 557.13 442.11 556.69 441.77
  A 2.18 2.06 -85.1 0 1 556.07 440.99
  Q 553.60 435.55 550.02 428.41
  Q 549.86 428.10 549.63 427.97
  Q 549.44 427.87 549.36 427.67
  Q 549.27 427.43 549.28 427.29
  Q 549.34 426.26 548.87 425.97
  Q 547.99 425.41 548.09 424.84
  Q 548.24 424.05 547.55 423.53
  A 0.39 0.36 9.2 0 1 547.41 423.35
  L 541.05 408.37
  A 2.47 0.82 36.9 0 0 540.51 407.59
  Q 540.22 407.26 540.17 406.57
  A 1.45 1.43 -66.9 0 0 539.84 405.74
  Q 539.81 405.71 539.74 405.64
  A 0.87 0.83 10.0 0 1 539.49 405.30
  Q 528.52 378.63 519.95 350.81
  Q 518.71 346.76 514.07 328.89
  A 0.12 0.06 -73.2 0 0 514.06 328.84
  L 513.09 326.31
  A 1.34 1.34 0.0 0 0 511.70 325.46
  L 507.14 325.92
  A 0.79 0.78 15.0 0 0 506.61 326.22
  Q 505.96 327.04 504.51 326.86
  Q 502.88 326.67 501.74 327.36
  A 2.54 2.45 23.5 0 1 500.99 327.64
  Q 479.03 331.69 457.04 333.92
  Q 446.78 334.97 439.95 334.77
  Q 437.59 334.70 428.48 334.79
  Q 423.09 334.84 417.04 334.24
  Q 398.16 332.39 383.00 329.01
  Q 357.39 323.29 331.50 308.62
  Q 331.07 308.37 330.80 308.02
  Q 330.47 307.61 329.96 307.69
  A 0.88 0.86 -24.1 0 1 329.17 307.40
  C 328.14 306.23 326.63 305.67 325.37 304.84
  Q 321.01 301.97 315.64 298.33
  C 314.32 297.43 313.28 295.99 311.91 295.48
  A 2.85 2.83 -12.2 0 1 310.94 294.86
  C 308.38 292.35 305.48 291.04 303.18 288.27
  A 5.43 5.40 87.7 0 0 302.21 287.37
  Q 299.36 285.36 299.10 285.12
  Q 293.53 279.95 281.54 267.67
  A 5.83 5.77 7.1 0 1 280.69 266.59
  C 278.98 263.79 276.53 261.84 274.29 259.02
  Q 265.64 248.16 259.38 237.47
  A 1.79 1.75 29.5 0 1 259.15 236.68
  Q 259.13 235.89 258.50 235.77
  A 0.60 0.60 0.0 0 1 258.03 235.08
  Q 258.16 234.35 257.69 233.85
  Q 257.33 233.47 257.05 232.95
  Q 246.49 212.88 243.75 190.56
  Q 243.35 187.32 243.26 183.41
  C 243.13 178.38 241.78 174.21 242.75 168.25
  Q 243.48 163.79 243.37 157.70
  A 2.79 2.56 -42.5 0 1 243.41 157.24
  L 246.72 136.94
  A 2.37 2.35 -19.6 0 1 247.30 135.73
  Q 248.09 134.85 247.84 133.37
  A 0.76 0.74 72.8 0 1 248.25 132.57
  Q 249.36 132.04 249.05 130.37
  A 0.84 0.82 69.9 0 1 249.44 129.51
  Q 249.99 129.17 250.04 128.59
  Q 250.09 127.90 250.29 127.44
  Q 255.84 114.83 261.42 107.43
  Q 264.05 103.94 264.45 103.44
  Q 271.92 94.03 280.99 86.72
  A 2.23 1.97 11.7 0 1 281.55 86.40
  C 283.09 85.83 283.75 84.32 285.16 83.61
  Q 286.44 82.98 289.13 80.89
  Q 289.46 80.63 289.82 80.65
  A 0.86 0.85 -73.1 0 0 290.65 80.20
  Q 291.06 79.45 292.09 79.40
  Q 292.58 79.37 292.68 78.95
  C 292.76 78.63 293.27 78.37 293.52 78.38
  Q 294.29 78.43 294.62 78.07
  A 3.23 1.92 -68.7 0 1 295.39 77.47
  Q 298.69 75.81 302.30 73.97
  Q 303.95 73.13 304.26 72.99
  Q 305.07 72.65 305.77 72.70
  A 0.65 0.65 0.0 0 0 306.43 72.28
  Q 306.68 71.58 307.94 71.64
  Q 309.07 71.69 309.50 71.26
  C 310.40 70.35 312.44 70.61 313.89 69.92
  Q 315.18 69.30 317.71 69.34
  A 1.03 1.02 15.9 0 0 318.58 68.86
  Q 318.68 68.69 318.81 68.58
  Q 318.96 68.45 319.21 68.41
  Q 320.27 68.25 322.71 68.29
  A 1.66 1.65 -59.2 0 0 323.57 68.07
  Q 326.25 66.48 329.95 67.38
  A 0.32 0.31 -78.1 0 1 330.18 67.74
  L 330.14 68.03
  A 0.33 0.33 0.0 0 1 329.78 68.30
  Q 327.71 68.09 327.43 68.83
  A 0.80 0.79 14.2 0 1 326.56 69.34
  Q 325.67 69.22 325.25 69.80
  C 324.54 70.76 323.64 70.14 322.80 71.21
  Q 322.34 71.79 321.81 71.65
  Q 321.37 71.53 321.04 71.96
  Q 320.81 72.25 320.41 72.48
  Q 301.69 83.57 290.01 102.03
  Q 284.83 110.23 281.53 119.82
  Q 272.21 146.90 280.30 174.71
  C 281.98 180.46 285.13 186.91 287.03 193.35
  Q 288.45 198.15 289.55 200.72
  Q 293.53 210.06 295.34 214.17
  A 1.43 1.37 8.3 0 0 295.76 214.71
  Q 295.96 214.87 296.00 214.89
  A 0.33 0.32 -69.3 0 1 296.13 215.19
  Q 296.05 216.36 296.87 216.77
  A 0.68 0.67 -74.9 0 1 297.24 217.42
  Q 297.22 217.72 297.79 218.70
  Q 301.53 225.20 306.94 233.29
  C 307.72 234.44 309.37 235.76 309.69 237.13
  A 1.72 1.71 -76.6 0 0 310.24 238.03
  Q 312.42 239.92 313.42 242.00
  A 3.72 3.67 9.6 0 0 314.20 243.08
  C 317.58 246.27 319.65 249.76 322.86 252.92
  Q 330.23 260.13 331.99 262.04
  C 334.40 264.64 338.16 266.74 340.66 269.54
  A 4.71 4.60 83.9 0 0 341.81 270.49
  Q 344.47 272.04 346.88 274.62
  A 2.19 2.17 77.6 0 0 347.70 275.15
  Q 349.05 275.63 350.41 277.08
  A 3.19 2.93 83.0 0 0 350.96 277.55
  Q 355.00 280.18 357.97 282.27
  Q 363.05 285.86 367.11 288.04
  Q 371.16 290.22 376.53 293.33
  Q 379.61 295.11 388.97 299.03
  Q 411.90 308.64 433.04 311.26
  Q 433.14 311.28 436.78 312.00
  C 439.02 312.44 441.06 312.02 443.44 312.43
  Q 453.77 314.21 471.25 312.21
  Q 488.98 310.18 506.43 305.36
  Q 508.08 304.90 508.57 304.06
  Q 508.94 303.43 508.59 301.55
  Q 505.30 283.62 503.47 267.24
  C 503.10 263.94 503.23 260.64 503.12 258.17
  A 6.12 6.00 34.3 0 0 502.76 256.36
  C 501.68 253.30 502.03 250.21 502.00 246.92
  Q 501.81 229.10 501.99 211.71
  C 502.03 208.51 501.62 205.85 502.36 203.26
  C 503.42 199.56 503.12 197.32 503.13 192.92
  A 5.22 0.74 -71.5 0 1 503.64 190.16
  Q 503.83 189.42 504.22 185.76
  Q 509.20 138.70 527.32 90.76
  Q 527.80 89.49 527.85 89.01
  Q 527.98 87.77 528.58 87.43
  A 0.83 0.83 0.0 0 0 528.96 86.47
  Q 528.96 86.45 528.98 85.75
  Q 528.98 85.36 529.48 85.15
  Q 530.15 84.86 530.08 83.97
  Q 530.05 83.45 530.41 82.59
  Q 534.71 72.60 538.35 65.09
  Q 539.12 63.50 539.18 63.41
  Q 546.54 51.74 546.59 51.62
  C 547.28 50.30 549.24 49.05 549.60 47.40
  A 2.14 2.11 -12.3 0 1 550.43 46.13
  Q 552.88 44.32 553.76 42.17
  A 1.61 1.59 78.4 0 1 554.02 41.77
  Q 558.93 36.32 567.00 28.74
  Q 567.29 28.47 568.28 28.00
  A 4.75 4.38 -75.7 0 0 569.25 27.37
  Q 571.94 25.06 576.06 22.51
  Q 581.84 18.92 584.48 17.74
  Q 613.00 4.99 643.85 10.01
  A 1.35 1.34 -19.9 0 1 644.52 10.32
  Q 645.30 10.99 646.67 10.91
  Q 647.81 10.85 647.92 10.97
  Q 648.02 11.09 648.20 11.52
  A 0.94 0.93 78.6 0 0 649.06 12.10
  L 650.26 12.10
  A 0.84 0.69 -27.4 0 1 650.59 12.17
  L 659.80 16.66
  A 1.99 1.97 79.0 0 1 660.24 16.96
  Q 661.85 18.50 662.70 18.92
  Q 664.04 19.58 665.18 20.71
  C 667.28 22.79 670.13 25.13 671.56 27.78
  Q 672.26 29.08 673.48 30.10
  A 1.72 1.66 11.6 0 1 674.00 30.86
  Q 674.17 31.37 674.20 31.41
  C 681.38 43.36 685.14 56.26 686.14 70.29
  Q 686.28 72.21 686.92 87.09
  Q 687.31 95.99 686.81 102.40
  C 686.30 109.09 686.50 114.86 685.77 122.85
  Q 684.09 141.20 681.04 153.81
  Q 677.01 170.53 674.51 177.84
  Q 673.82 179.87 673.87 180.11
  A 0.79 0.79 0.0 0 1 673.60 180.90
  Q 672.65 181.66 672.89 183.06
  A 0.83 0.83 0.0 0 1 672.56 183.89
  C 671.62 184.59 671.93 185.20 671.64 186.00
  Q 659.47 219.79 637.44 247.95
  Q 635.77 250.09 634.88 250.89
  C 633.56 252.08 632.93 253.58 631.66 254.98
  Q 622.65 264.93 612.70 273.94
  C 611.08 275.40 608.82 276.73 607.01 278.71
  A 4.58 4.34 1.5 0 1 606.42 279.24
  Q 600.17 283.82 593.98 288.24
  Q 589.67 291.31 585.25 293.75
  Q 582.50 295.26 581.37 296.35
  A 0.93 0.92 27.0 0 1 580.61 296.59
  Q 580.58 296.58 580.42 296.55
  A 0.33 0.32 28.4 0 0 580.10 296.64
  Q 579.12 297.65 577.05 298.62
  Q 576.32 298.96 575.96 299.38
  Q 575.52 299.90 574.85 299.86
  A 1.26 1.25 19.0 0 0 573.75 300.39
  Q 573.72 300.43 573.68 300.50
  A 1.36 1.35 -72.4 0 1 572.49 301.12
  Q 571.67 301.09 571.43 301.68
  A 0.78 0.77 13.1 0 1 570.64 302.16
  Q 569.66 302.06 569.38 302.80
  A 0.67 0.66 15.9 0 1 568.64 303.21
  Q 567.61 303.01 567.12 304.01
  A 0.64 0.63 -70.9 0 1 566.42 304.36
  Q 565.27 304.12 564.78 305.22
  A 0.64 0.64 0.0 0 1 564.03 305.58
  Q 563.12 305.34 562.71 306.13
  Q 562.39 306.74 561.63 306.63
  Q 560.91 306.52 560.49 307.11
  Q 559.91 307.92 559.55 307.81
  Q 559.51 307.79 558.95 307.78
  A 0.91 0.90 14.3 0 0 558.13 308.26
  Q 557.71 309.04 556.53 308.85
  A 0.65 0.65 0.0 0 0 555.83 309.25
  Q 555.58 309.89 555.03 309.88
  Q 554.47 309.88 553.94 310.09
  Q 544.62 313.84 534.61 317.77
  A 1.81 1.81 0.0 0 0 533.51 319.87
  Q 535.79 329.61 537.38 336.83
  Q 543.72 365.57 554.58 394.18
  Q 554.91 395.05 554.86 395.39
  Q 554.74 396.38 555.49 396.56
  A 0.49 0.49 0.0 0 1 555.87 397.00
  L 555.99 398.45
  A 0.62 0.60 -86.1 0 0 556.45 398.99
  Q 556.93 399.11 557.02 400.26
  Q 557.04 400.54 557.40 401.49
  Q 560.06 408.58 562.39 413.35
  Q 562.77 414.13 562.79 414.66
  A 1.07 1.05 -72.8 0 0 563.20 415.46
  Q 564.04 416.12 563.85 417.28
  A 0.58 0.58 0.0 0 0 564.27 417.93
  Q 565.07 418.16 564.91 419.11
  A 1.14 1.14 0.0 0 0 565.42 420.24
  Q 565.44 420.25 565.51 420.29
  A 1.18 1.18 0.0 0 1 566.05 421.40
  Q 565.95 422.38 566.75 422.67
  A 0.64 0.63 13.2 0 1 567.17 423.34
  Z
  M 556.09 287.66
  Q 556.83 287.65 557.78 287.06
  Q 561.49 284.76 567.87 280.58
  Q 568.80 279.96 569.28 279.54
  Q 570.36 278.60 570.79 278.57
  A 1.29 1.27 -71.9 0 0 571.68 278.11
  C 573.14 276.32 575.18 275.75 576.64 274.15
  Q 578.68 271.93 581.85 270.05
  A 0.45 0.38 -76.3 0 0 581.96 269.97
  L 603.76 248.21
  A 0.57 0.48 85.3 0 0 603.86 248.07
  Q 605.88 244.73 609.15 241.71
  A 4.20 4.10 -8.0 0 0 610.00 240.61
  Q 611.59 237.64 614.12 235.60
  A 1.19 1.15 -18.1 0 0 614.55 234.79
  Q 614.61 234.01 615.47 233.24
  Q 616.91 231.94 617.52 230.74
  Q 618.10 229.60 619.31 228.04
  Q 623.67 222.43 629.12 213.33
  Q 647.34 182.87 655.24 149.02
  Q 658.37 135.60 660.86 115.37
  Q 661.60 109.37 661.77 101.09
  Q 661.96 91.31 661.85 86.79
  Q 661.40 67.42 654.69 49.40
  C 651.91 41.96 647.08 33.81 641.29 29.50
  C 627.79 19.46 609.39 22.55 595.45 31.19
  C 588.93 35.23 584.37 39.99 576.86 47.93
  C 575.97 48.88 574.90 50.75 573.65 52.39
  Q 568.33 59.41 563.07 69.59
  Q 555.22 84.77 548.41 102.18
  Q 548.12 102.93 548.08 103.76
  Q 548.03 104.96 547.37 105.34
  A 0.77 0.74 78.6 0 0 547.00 105.92
  Q 546.95 106.42 546.83 106.73
  Q 537.66 132.73 532.51 159.01
  Q 530.75 167.98 529.76 177.17
  A 2.78 2.67 63.3 0 1 529.47 178.11
  C 528.48 180.02 528.93 183.98 528.88 184.84
  A 3.33 3.23 62.0 0 1 528.46 186.29
  L 528.10 186.93
  A 1.86 1.84 60.3 0 0 527.85 187.86
  L 527.85 194.59
  A 3.37 3.29 55.6 0 1 527.65 195.73
  L 527.34 196.60
  A 11.39 11.29 55.0 0 0 526.71 200.27
  C 526.71 206.38 526.76 208.97 525.77 213.29
  A 7.15 6.96 52.3 0 0 525.61 214.69
  Q 525.61 223.02 525.57 246.20
  Q 525.56 250.40 526.32 255.84
  Q 527.01 260.78 526.80 265.83
  A 7.23 7.07 -52.2 0 0 527.06 268.08
  Q 528.22 272.18 527.80 276.59
  A 4.44 4.35 37.0 0 0 528.12 278.72
  Q 529.27 281.51 528.90 285.67
  A 3.83 3.80 34.1 0 0 529.32 287.81
  L 529.72 288.59
  A 1.20 1.16 30.0 0 1 529.84 289.01
  L 530.32 295.23
  A 2.82 2.81 -86.4 0 0 532.55 297.76
  Q 532.59 297.77 533.81 297.54
  C 535.39 297.24 536.16 296.37 538.02 296.36
  Q 538.59 296.36 540.74 295.39
  Q 541.05 295.25 541.20 294.94
  A 0.58 0.55 -86.9 0 1 541.52 294.64
  Q 547.95 292.10 554.23 288.71
  Q 554.35 288.64 554.93 288.57
  Q 555.55 288.49 555.64 288.04
  A 0.47 0.47 0.0 0 1 556.09 287.66
  Z"
/>
</svg>
